<?xml version="1.0" encoding="UTF-8"?>
<svg width="24px" height="24px" viewBox="0 0 24 24" version="1.1" xmlns="http://www.w3.org/2000/svg">
    <g stroke="none" stroke-width="1" fill="none" fill-rule="evenodd">
        <path d="M7.4,18 L12.2347,18 L12.2347,11.2 L14.6575,11.2 L15,8.8 L12.2347,8.8 L12.2347,7.4 C12.2347,7.18783 12.3189,6.98434 12.4689,6.83431 C12.6189,6.68429 12.8224,6.6 13.0347,6.6 L15,6.6 L15,4.2 L13.0347,4.2 C12.1855,4.2 11.3715,4.53714 10.7714,5.13726 C10.1713,5.73737 9.83421,6.55131 9.83421,7.4 L9.83421,8.8 L8.2,8.8 L8.2,11.2 L9.83421,11.2 L9.83421,18 L7.4,18 Z M3.33787,4.8 C4.55913,3.39452 6.15505,2.39539 7.93357,1.92008 C9.7121,1.44478 11.598,1.51687 13.336,2.12548 C15.074,2.73408 16.5857,3.85298 17.6726,5.33258 C18.7595,6.81218 19.3665,8.57993 19.4125,10.4151 C19.4585,12.2502 18.9414,14.0512 17.9271,15.5835 C16.9129,17.1159 15.454,18.3014 13.7423,18.9869 C12.0306,19.6723 10.1485,19.8239 8.34547,19.4197 C6.54248,19.0154 4.90867,18.0746 3.66181,16.7 C3.20151,16.1879 2.80731,15.6214 2.48681,15.01 C1.00779,12.4679 1.00779,9.53212 2.48681,7 C2.80487,6.38816 3.19606,5.82088 3.65387,5.308 L3.33787,4.8 Z M8.2,20 C9.33195,20.0013 10.4487,19.7683 11.4772,19.3186 C12.5057,18.8689 13.4226,18.2125 14.1708,17.3936 C14.9191,16.5746 15.4811,15.6122 15.8212,14.5686 C16.1612,13.5251 16.2716,12.4221 16.1455,11.3356 C16.0194,10.2491 15.6597,9.20115 15.091,8.25776 C14.5224,7.31438 13.7589,6.4985 12.8516,5.86333 C11.9444,5.22815 10.9147,4.78975 9.83486,4.57692 C8.75501,4.3641 7.64631,4.38107 6.57421,4.62688 C6.69148,4.4632 6.82074,4.30643 6.96121,4.156 C8.18869,2.9313 9.87775,2.2483 11.6347,2.2483 C13.3917,2.2483 15.0808,2.9313 16.3082,4.156 C17.5357,5.38069 18.22,7.06747 18.22,8.822 C18.22,10.5765 17.5357,12.2633 16.3082,13.488 C15.0808,14.7127 13.3917,15.3957 11.6347,15.3957 C9.87775,15.3957 8.18869,14.7127 6.96121,13.488 C6.44831,12.9765 6.0321,12.3828 5.7332,11.734 C5.66453,12.8149 5.8323,13.8984 6.22571,14.9125 C6.61911,15.9267 7.22835,16.8482 8.01277,17.61 C8.1482,17.7452 8.29108,17.8728 8.4407,17.9923 C8.34896,17.9974 8.25747,18 8.16622,18 L7.4,18 C6.15653,18 4.96377,17.5259 4.05025,16.682 C3.13672,15.838 2.6,14.6304 2.6,13.3735 L2.6,13.2265 C2.6,11.9696 3.13672,10.762 4.05025,9.91804 C4.96377,9.07411 6.15653,8.6 7.4,8.6 L7.4,6.2 C6.61857,6.19986 5.85358,6.40545 5.18347,6.79613 C4.51336,7.18682 3.96352,7.74839 3.59923,8.422 C3.19423,9.18867 3.00087,10.0444 3.03753,10.9052 C3.07419,11.766 3.3398,12.6039 3.81222,13.334 C3.80067,13.4169 3.79484,13.5002 3.79484,13.5837 C3.79484,14.4323 4.13193,15.2463 4.73205,15.8464 C5.33217,16.4465 6.14611,16.7837 7.0,16.7837 L7.4,16.7837 L7.4,18 L8.2,18 L8.2,20 Z" fill="currentColor" fill-rule="nonzero"></path>
    </g>
</svg>
