<?xml version="1.0" encoding="UTF-8"?>
<svg width="24px" height="24px" viewBox="0 0 24 24" version="1.1" xmlns="http://www.w3.org/2000/svg">
    <g stroke="none" stroke-width="1" fill="none" fill-rule="evenodd">
        <path d="M19.27,5.33 C19.512,5.572 19.71,5.855 19.855,6.164 C20,6.474 20.089,6.805 20.118,7.144 C20.142,7.368 20.142,19.968 20.089,20.221 C20.0157,20.9155 19.6891,21.5658 19.16,22.05 C19.0277,22.1737 18.8853,22.285 18.735,22.383 C18.3659,22.6122 17.9373,22.7335 17.5,22.733 C16.878,22.772 7.15,22.764 6.4,22.71 C5.88949,22.6349 5.41122,22.4169 5.02,22.08 C4.94397,22.0151 4.87415,21.9452 4.81,21.871 C4.39204,21.4035 4.16239,20.802 4.16,20.18 L4.16,7.2 C4.17648,6.93319 4.23203,6.67066 4.32486,6.42358 C4.41768,6.1765 4.54644,5.94868 4.707,5.75 C4.85847,5.56151 5.03901,5.39969 5.2425,5.27209 C5.44598,5.14449 5.67026,5.05334 5.905,5.004 C6.155,4.954 6.418,4.954 6.658,4.954 L17.332,4.954 C18.1356,4.96308 18.8905,5.28916 19.432,5.855 L19.27,5.33 Z M9.498,15.298 C9.498,14.698 9.156,14.342 8.56,14.342 C8.356,14.342 8.184,14.364 8.04,14.408 L8.04,16.188 C8.184,16.232 8.356,16.254 8.56,16.254 C9.156,16.254 9.498,15.892 9.498,15.298 Z M8.834,17.756 C8.354,17.756 7.984,17.712 7.72,17.624 L7.72,12.27 C8.106,12.16 8.57,12.116 9.112,12.116 C9.654,12.116 10.064,12.226 10.342,12.446 C10.62,12.666 10.802,12.996 10.802,13.414 C10.802,13.832 10.644,14.184 10.368,14.426 C10.014,14.732 9.484,14.872 8.834,14.872 C8.684,14.872 8.552,14.864 8.448,14.848 L8.448,17.624 C8.3,17.712 8.094,17.756 7.834,17.756 L8.834,17.756 Z M14.412,15.522 C14.412,16.826 13.588,17.756 12.296,17.756 C11.782,17.763 11.269,17.691 10.78,17.542 L10.78,12.258 C11.342,12.076 11.937,11.985 12.536,12 C13.796,12 14.412,12.704 14.412,13.766 L14.412,15.522 Z M12.534,12.672 C12.388,12.672 12.258,12.684 12.154,12.7 L12.154,16.87 C12.258,16.892 12.374,16.898 12.534,16.898 C13.152,16.898 13.588,16.452 13.588,15.68 L13.588,13.976 C13.588,13.16 13.176,12.672 12.534,12.672 Z M16.24,12.77 C15.76,12.77 15.414,13.108 15.414,13.57 C15.414,14.02 15.75,14.358 16.24,14.358 C16.73,14.358 17.066,14.02 17.066,13.57 C17.066,13.12 16.72,12.77 16.24,12.77 Z M16.651,14.996 L15.827,14.996 C15.773,14.9909 15.7183,15.005 15.67,15.0369 C15.6217,15.0689 15.582,15.1172 15.557,15.175 L15.557,17.626 L16.918,17.626 L16.918,15.175 C16.8956,15.1195 16.8596,15.0714 16.8145,15.0361 C16.7693,15.0008 16.7169,14.9798 16.662,14.975 L16.651,14.996 Z" fill="currentColor" fill-rule="nonzero"></path>
    </g>
</svg>
