<?xml version="1.0" encoding="UTF-8"?>
<svg width="24px" height="24px" viewBox="0 0 24 24" version="1.1" xmlns="http://www.w3.org/2000/svg">
    <g stroke="none" stroke-width="1" fill="none" fill-rule="evenodd">
        <path d="M12,0 C5.372,0 0,5.372 0,12 C0,18.628 5.372,24 12,24 C18.628,24 24,18.628 24,12 C24,5.372 18.628,0 12,0 Z M19.201,11.998 C19.201,11.194 18.552,10.541 17.751,10.541 C17.326,10.541 16.948,10.719 16.684,11.007 C15.551,10.28 14.141,9.8 12.617,9.732 L13.501,5.914 L16.051,6.467 C16.079,7.029 16.537,7.479 17.106,7.479 C17.689,7.479 18.165,7.003 18.165,6.42 C18.165,5.837 17.689,5.361 17.106,5.361 C16.701,5.361 16.354,5.606 16.203,5.95 L13.455,5.351 C13.345,5.328 13.235,5.373 13.186,5.473 L12.213,9.706 C10.662,9.756 9.226,10.237 8.077,10.975 C7.818,10.707 7.452,10.541 7.049,10.541 C6.247,10.541 5.599,11.194 5.599,11.998 C5.599,12.598 5.964,13.102 6.485,13.327 C6.456,13.498 6.441,13.672 6.441,13.849 C6.441,16.173 8.911,18.064 11.967,18.064 C15.024,18.064 17.493,16.173 17.493,13.849 C17.493,13.682 17.48,13.518 17.454,13.356 C17.986,13.135 18.361,12.624 18.361,12.015 L19.201,11.998 Z M8.905,12.953 C8.905,12.37 9.382,11.894 9.964,11.894 C10.547,11.894 11.024,12.37 11.024,12.953 C11.024,13.535 10.547,14.012 9.964,14.012 C9.382,14.012 8.905,13.535 8.905,12.953 Z M14.069,15.954 C13.558,16.465 12.669,16.474 12,16.474 C11.33,16.474 10.441,16.465 9.931,15.954 C9.82,15.844 9.82,15.664 9.931,15.554 C10.042,15.443 10.222,15.443 10.332,15.554 C10.676,15.898 11.269,15.965 12,15.965 C12.731,15.965 13.324,15.898 13.668,15.554 C13.779,15.443 13.958,15.443 14.069,15.554 C14.179,15.664 14.179,15.844 14.069,15.954 Z M13.968,14.012 C13.386,14.012 12.91,13.535 12.91,12.953 C12.91,12.37 13.386,11.894 13.968,11.894 C14.551,11.894 15.027,12.37 15.027,12.953 C15.027,13.535 14.551,14.012 13.968,14.012 Z" fill="currentColor" fill-rule="nonzero"></path>
    </g>
</svg>
