<?xml version="1.0" encoding="UTF-8"?>
<svg width="24px" height="24px" viewBox="0 0 24 24" version="1.1" xmlns="http://www.w3.org/2000/svg">
    <g stroke="none" stroke-width="1" fill="none" fill-rule="evenodd">
        <path d="M23.643,4.937 C22.808,5.317 21.911,5.57 20.968,5.686 C21.941,5.084 22.669,4.136 23.016,3.011 C22.116,3.563 21.119,3.967 20.058,4.197 C19.208,3.246 17.998,2.652 16.658,2.652 C14.086,2.652 12,4.738 12,7.312 C12,7.677 12.042,8.031 12.12,8.373 C8.247,8.175 4.805,6.319 2.518,3.519 C2.118,4.21 1.888,5.012 1.888,5.869 C1.888,7.488 2.693,8.913 3.928,9.729 C3.157,9.705 2.428,9.492 1.79,9.137 L1.79,9.195 C1.79,11.457 3.38,13.329 5.505,13.756 C5.126,13.862 4.722,13.92 4.31,13.92 C4.022,13.92 3.742,13.891 3.471,13.837 C4.038,15.672 5.749,17.017 7.771,17.053 C6.176,18.304 4.172,19.066 2.006,19.066 C1.63,19.066 1.264,19.043 0.897,19 C2.945,20.328 5.354,21.116 7.933,21.116 C16.647,21.116 21.39,13.999 21.39,7.825 C21.39,7.622 21.387,7.42 21.379,7.219 C22.295,6.534 23.072,5.685 23.7,4.721 L23.643,4.937 Z" fill="currentColor" fill-rule="nonzero"></path>
    </g>
</svg>
